<svg xmlns="http://www.w3.org/2000/svg" viewBox="0 0 1024 1024" role="img" aria-label="InvestInsight app icon">
  <defs>
    <linearGradient id="bg" x1="116" y1="100" x2="928" y2="930" gradientUnits="userSpaceOnUse">
      <stop offset="0" stop-color="#0f172a"/>
      <stop offset="0.45" stop-color="#12385f"/>
      <stop offset="1" stop-color="#0d9488"/>
    </linearGradient>
    <linearGradient id="line" x1="240" y1="690" x2="794" y2="315" gradientUnits="userSpaceOnUse">
      <stop offset="0" stop-color="#22d3ee"/>
      <stop offset="0.52" stop-color="#a3e635"/>
      <stop offset="1" stop-color="#facc15"/>
    </linearGradient>
    <filter id="softShadow" x="-20%" y="-20%" width="140%" height="140%">
      <feDropShadow dx="0" dy="24" stdDeviation="28" flood-color="#020617" flood-opacity="0.35"/>
    </filter>
  </defs>
  <rect x="88" y="88" width="848" height="848" rx="188" fill="url(#bg)"/>
  <path d="M260 748H764" stroke="#dbeafe" stroke-width="36" stroke-linecap="round" opacity="0.86"/>
  <path d="M286 690V532M424 690V430M562 690V494M700 690V342" stroke="#dbeafe" stroke-width="44" stroke-linecap="round" opacity="0.9"/>
  <path d="M256 662C342 628 386 520 470 515C548 510 568 600 642 552C706 510 710 398 790 326" fill="none" stroke="url(#line)" stroke-width="58" stroke-linecap="round" stroke-linejoin="round" filter="url(#softShadow)"/>
  <circle cx="790" cy="326" r="46" fill="#facc15" stroke="#fefce8" stroke-width="18"/>
  <path d="M266 286H498M266 354H442M266 422H368" stroke="#bfdbfe" stroke-width="32" stroke-linecap="round" opacity="0.82"/>
  <path d="M636 218C730 236 808 304 842 394" fill="none" stroke="#67e8f9" stroke-width="30" stroke-linecap="round" opacity="0.78"/>
  <path d="M846 466C842 492 834 518 822 542" fill="none" stroke="#67e8f9" stroke-width="30" stroke-linecap="round" opacity="0.55"/>
  <circle cx="634" cy="218" r="24" fill="#67e8f9"/>
  <circle cx="846" cy="466" r="20" fill="#67e8f9" opacity="0.8"/>
</svg>
