<svg xmlns="http://www.w3.org/2000/svg" width="1366" height="860" viewBox="0 0 1366 860">
  <defs><style>
    .bg{fill:#F5F7FA}.side{fill:#0E1626}.surface{fill:#fff;stroke:#DDE3EC}.soft{fill:#F8FAFD;stroke:#DDE3EC}.active{fill:#E8EEF9}
    .title{font:700 24px "Microsoft YaHei",Arial;fill:#111827}.h2{font:700 17px "Microsoft YaHei",Arial;fill:#111827}.h3{font:700 14px "Microsoft YaHei",Arial;fill:#111827}
    .body{font:400 12px "Microsoft YaHei",Arial;fill:#475569}.meta{font:400 11px "Microsoft YaHei",Arial;fill:#8A99AE}.purple{fill:#6D5DF6}.green{fill:#16A34A}.orange{fill:#C2410C}.blue{fill:#2563EB}
  </style></defs>
  <rect class="bg" width="1366" height="860"/><rect class="side" width="236" height="860"/>
  <text x="24" y="54" font-family="Georgia" font-size="27" font-weight="700" fill="#fff">InvestInsight</text><text x="24" y="80" class="meta">新闻驱动的板块洞察</text>
  <text x="46" y="152" class="h3" fill="#CBD5E1">总览</text><text x="46" y="204" class="h3" fill="#CBD5E1">事件雷达</text><text x="46" y="256" class="h3" fill="#CBD5E1">板块机会</text><text x="46" y="308" class="h3" fill="#CBD5E1">策略跟踪</text>
  <rect x="18" y="332" width="200" height="44" rx="8" class="active"/><text x="46" y="360" class="h3" fill="#183B72">AI 助手</text><text x="46" y="412" class="h3" fill="#CBD5E1">配置</text>
  <rect x="236" y="0" width="1130" height="64" fill="#fff" stroke="#DDE3EC"/><text x="268" y="40" class="title">AI 助手</text><text x="370" y="40" class="body">基于当前分析结果的问答和复盘</text><text x="944" y="40" class="h3">20:25 · 规则引擎 · AI 可用</text>

  <rect x="260" y="88" width="360" height="744" rx="8" class="surface"/>
  <text x="286" y="122" class="h2">当前上下文</text>
  <g>
    <rect x="286" y="150" width="306" height="58" rx="7" class="soft"/><text x="306" y="174" class="meta">市场状态</text><text x="306" y="196" class="h3">风险偏好下降</text>
    <rect x="286" y="222" width="306" height="76" rx="7" class="soft"/><text x="306" y="246" class="meta">重点事件</text><text x="306" y="268" class="h3">企业盈利依然强劲，AI 交易终结尚早</text><text x="306" y="288" class="meta">Expected · 可信度 0.82</text>
    <rect x="286" y="312" width="306" height="58" rx="7" class="soft"/><text x="306" y="336" class="meta">强势板块</text><text x="306" y="358" class="h3">光伏、玻璃玻纤</text>
    <rect x="286" y="384" width="306" height="58" rx="7" class="soft"/><text x="306" y="408" class="meta">风险板块</text><text x="306" y="430" class="h3">半导体设备、存储芯片</text>
  </g>
  <text x="286" y="492" class="h2">快捷问题</text>
  <rect x="286" y="516" width="306" height="32" rx="6" fill="#E8EEF9"/><text x="306" y="537" class="h3" fill="#183B72">为什么推荐半导体？</text>
  <rect x="286" y="560" width="306" height="32" rx="6" fill="#E8EEF9"/><text x="306" y="581" class="h3" fill="#183B72">有色金属看什么指标？</text>
  <rect x="286" y="604" width="306" height="32" rx="6" fill="#E8EEF9"/><text x="306" y="625" class="h3" fill="#183B72">我的持仓要调吗？</text>

  <rect x="644" y="88" width="698" height="420" rx="8" class="surface"/>
  <text x="670" y="122" class="h2">对话</text>
  <rect x="670" y="154" width="620" height="72" rx="8" fill="#F8FAFD" stroke="#DDE3EC"/>
  <text x="694" y="184" class="h3 purple">InvestInsight AI 助手</text>
  <text x="694" y="208" class="body">我已读取当前市场、事件、板块机会和策略跟踪。你可以直接问某个板块为什么推荐、何时失效、持仓如何处理。</text>
  <rect x="670" y="446" width="528" height="34" rx="7" class="soft"/><text x="690" y="468" class="meta">输入问题，例如：解释光伏的点位计划</text>
  <rect x="1210" y="446" width="80" height="34" rx="7" fill="#4258FF"/><text x="1234" y="468" font-family="Microsoft YaHei" font-size="12" font-weight="700" fill="#fff">发送</text>

  <rect x="644" y="532" width="698" height="300" rx="8" class="surface"/>
  <text x="670" y="566" class="h2">配置页布局预览</text>
  <rect x="670" y="596" width="310" height="168" rx="8" class="soft"/>
  <text x="692" y="624" class="h3">AI 接入</text><text x="692" y="654" class="body">DeepSeek · 已配置</text><text x="692" y="682" class="body">OpenAI · 未配置</text><text x="692" y="710" class="body">TopN：20 · AI 深度分析：开启</text>
  <rect x="1004" y="596" width="310" height="168" rx="8" class="soft"/>
  <text x="1026" y="624" class="h3">我的持仓</text><text x="1026" y="654" class="body">板块 · 类型 · 买入日期 · 金额 · 成本</text><text x="1026" y="682" class="body">持仓表格固定行高，横向滚动不挤压字段。</text>
  <rect x="670" y="782" width="644" height="34" rx="7" fill="#4258FF"/><text x="966" y="804" font-family="Microsoft YaHei" font-size="13" font-weight="700" fill="#fff">保存配置</text>
</svg>
