<svg xmlns="http://www.w3.org/2000/svg" width="1366" height="2200" viewBox="0 0 1366 2200">
  <defs><style>
    .bg{fill:#F5F7FA}.side{fill:#0E1626}.surface{fill:#fff;stroke:#DDE3EC}.soft{fill:#F8FAFD;stroke:#DDE3EC}.active{fill:#E8EEF9}
    .title{font:700 24px "Microsoft YaHei",Arial;fill:#111827}.h2{font:700 17px "Microsoft YaHei",Arial;fill:#111827}.h3{font:700 14px "Microsoft YaHei",Arial;fill:#111827}
    .body{font:400 12px "Microsoft YaHei",Arial;fill:#475569}.meta{font:400 11px "Microsoft YaHei",Arial;fill:#8A99AE}.num{font:700 22px "Microsoft YaHei",Arial;fill:#111827}
    .red{fill:#E5484D}.blue{fill:#2563EB}.orange{fill:#C2410C}.green{fill:#16A34A}.purple{fill:#6D5DF6}.line{stroke:#DDE3EC;stroke-width:1}.dash{stroke:#CBD5E1;stroke-width:1;stroke-dasharray:6 6}
  </style></defs>
  <rect class="bg" width="1366" height="2200"/>
  <rect class="side" width="236" height="2200"/>
  <text x="24" y="54" font-family="Georgia" font-size="27" font-weight="700" fill="#fff">InvestInsight</text>
  <text x="24" y="80" class="meta">新闻驱动的板块洞察</text>
  <text x="46" y="152" class="h3" fill="#CBD5E1">总览</text>
  <text x="46" y="204" class="h3" fill="#CBD5E1">事件雷达</text>
  <rect x="18" y="228" width="200" height="44" rx="8" class="active"/>
  <text x="46" y="256" class="h3" fill="#183B72">板块机会</text>
  <text x="46" y="308" class="h3" fill="#CBD5E1">策略跟踪</text>
  <text x="46" y="360" class="h3" fill="#CBD5E1">AI 助手</text>
  <text x="46" y="412" class="h3" fill="#CBD5E1">配置</text>
  <rect x="18" y="2060" width="200" height="78" rx="8" fill="#1B2A3D" stroke="#334155"/>
  <text x="36" y="2088" class="h3" fill="#E5E7EB">数据状态</text>
  <circle cx="42" cy="2112" r="5" fill="#16A34A"/><text x="56" y="2116" class="meta" fill="#D1FAE5">行情等待刷新</text>
  <circle cx="42" cy="2130" r="5" fill="#FACC15"/><text x="56" y="2134" class="meta" fill="#FEF3C7">新闻等待扫描</text>

  <rect x="236" y="0" width="1130" height="64" fill="#fff" stroke="#DDE3EC"/>
  <text x="268" y="40" class="title">光伏详情</text>
  <text x="392" y="40" class="body">行情 · 事件 · 路径 · 技术面和证据新闻</text>
  <text x="944" y="40" class="h3">20:25 · 推荐中 · 数据质量 80</text>

  <line x1="236" y1="860" x2="1366" y2="860" class="dash"/>
  <text x="1188" y="846" class="meta">首屏边界：下方仍属于详情长页</text>

  <rect x="260" y="88" width="1082" height="92" rx="8" class="surface"/>
  <text x="286" y="120" class="h2">决策摘要</text>
  <rect x="286" y="136" width="110" height="30" rx="5" fill="#DCFCE7" stroke="#86EFAC"/>
  <text x="310" y="156" class="h3 green">持有偏空</text>
  <text x="426" y="156" class="h3">下跌趋势，先处理风险，不因短线反弹提前推荐。</text>
  <text x="792" y="156" class="body">今日 <tspan class="red">+2.21%</tspan> · 综合评分 0.12 · 置信度 78% · 风险收益比 0.80</text>

  <rect x="260" y="204" width="676" height="540" rx="8" class="surface"/>
  <text x="286" y="236" class="h2">趋势图与点位</text>
  <rect x="286" y="256" width="610" height="402" rx="6" fill="#FBFCFE" stroke="#DDE3EC"/>
  <text x="306" y="286" class="meta">近 3 月趋势 / 近 6 月趋势 / 近 1 年趋势</text>
  <polyline points="320,352 370,324 420,362 470,342 520,382 570,374 620,416 670,402 720,442 770,420 820,468 870,452" fill="none" stroke="#E5484D" stroke-width="3"/>
  <text x="306" y="510" class="meta">日 K 线 · 成交量 · MACD · 资金流 · 周/月参考图</text>
  <g stroke="#2563EB" stroke-width="2"><line x1="330" y1="610" x2="330" y2="570"/><line x1="350" y1="610" x2="350" y2="582"/><line x1="370" y1="610" x2="370" y2="552"/><line x1="390" y1="610" x2="390" y2="592"/><line x1="410" y1="610" x2="410" y2="572"/><line x1="430" y1="610" x2="430" y2="544"/></g>
  <text x="286" y="686" class="meta">长页实现时图表区至少保留完整 K 线、成交量、MACD 和资金流，不压缩为单张小图。</text>

  <rect x="960" y="204" width="382" height="540" rx="8" class="surface"/>
  <text x="986" y="236" class="h2">购买建议 · 技术点位计划</text>
  <text x="986" y="272" class="h3">风险预警 · 下跌趋势 · 短期风险观察</text>
  <g class="body">
    <text x="986" y="318">观察买入区</text><text x="1120" y="318" class="blue">5626.37 - 5902.48</text>
    <text x="986" y="360">止损失效位</text><text x="1120" y="360" class="red">5396.28</text>
    <text x="986" y="402">止盈减仓区</text><text x="1120" y="402" class="green">6139.99 - 6370.08</text>
    <text x="986" y="444">风险收益比</text><text x="1120" y="444" class="orange">0.80</text>
  </g>
  <rect x="986" y="484" width="306" height="76" rx="6" fill="#FFF7ED" stroke="#FED7AA"/>
  <text x="1004" y="512" class="body">低于 1.5 时不应积极增配；等待放量企稳、</text>
  <text x="1004" y="532" class="body">重新站回 MA20 后再提高仓位。</text>
  <rect x="986" y="590" width="306" height="92" rx="6" class="soft"/>
  <text x="1004" y="618" class="h3">执行检查清单</text>
  <text x="1004" y="642" class="body">1. 是否站回观察区上沿</text>
  <text x="1004" y="664" class="body">2. 是否放量且资金回流</text>

  <rect x="260" y="776" width="526" height="230" rx="8" class="surface"/>
  <text x="286" y="808" class="h2">相关事件分析</text>
  <text x="286" y="842" class="body">事件驱动分：0.00</text>
  <rect x="286" y="864" width="456" height="74" rx="6" class="soft"/>
  <text x="304" y="896" class="body">暂无结构化事件路径，先以新闻证据和技术形态为主。</text>
  <text x="304" y="918" class="meta">若后续出现政策、价格、订单事件，按路径写入此区域。</text>
  <text x="286" y="970" class="h3 orange">失效条件：事件无法传导到订单、价格、资金或业绩验证。</text>

  <rect x="810" y="776" width="532" height="230" rx="8" class="surface"/>
  <text x="836" y="808" class="h2">预测矩阵</text>
  <text x="836" y="848" class="body">短期：MACD柱线为负，空方占优；成交量萎缩，观望情绪浓厚。</text>
  <text x="836" y="884" class="body">中期：均线空头排列，周级别动量偏弱，等待重新放量。</text>
  <text x="836" y="920" class="body">长期：月级别动量回落，产业趋势与估值分位需要再验证。</text>
  <rect x="836" y="948" width="430" height="36" rx="6" fill="#F8FAFD" stroke="#DDE3EC"/>
  <text x="856" y="971" class="meta">预测矩阵是详情页第二屏内容，不能被截断或挤到新闻列表之后。</text>

  <rect x="260" y="1030" width="1082" height="1060" rx="8" class="surface"/>
  <text x="286" y="1064" class="h2">证据层</text>
  <text x="286" y="1088" class="body">下方保留原始证据和量化指标，用于核对首屏结论，不作为新的推荐入口。</text>

  <rect x="286" y="1120" width="500" height="212" rx="8" class="soft"/>
  <text x="312" y="1152" class="h2">核心评分</text>
  <text x="312" y="1192" class="body">综合评分</text><text x="430" y="1192" class="red">0.12</text><text x="540" y="1192" class="meta">置信度 78%</text>
  <text x="312" y="1230" class="body">事件催化</text><text x="430" y="1230">0.00</text><text x="540" y="1230" class="meta">暂无结构化事件</text>
  <text x="312" y="1268" class="body">技术强度</text><text x="430" y="1268" class="blue">-0.25</text><text x="540" y="1268" class="meta">方向不明</text>
  <text x="312" y="1306" class="body">数据质量</text><text x="430" y="1306">80</text><text x="540" y="1306" class="meta">多源行情可用</text>

  <rect x="810" y="1120" width="506" height="212" rx="8" class="soft"/>
  <text x="836" y="1152" class="h2">短中长期观点</text>
  <text x="836" y="1192" class="body">短期：空方占优，观察情绪浓厚。</text>
  <text x="836" y="1230" class="body">中期：均线空头排列，下行压力明显。</text>
  <text x="836" y="1268" class="body">长期：月级别动量偏弱，等待趋势重建。</text>
  <text x="836" y="1306" class="h3 green">看多因素：今日涨幅、正面新闻、板块热度较高</text>

  <rect x="286" y="1360" width="500" height="252" rx="8" class="soft"/>
  <text x="312" y="1392" class="h2">技术指标</text>
  <text x="312" y="1432" class="body">MACD：DIF -142.67 / DEA -172.43 · 观察</text>
  <text x="312" y="1470" class="body">RSI：RSI6 44.9 / RSI12 43.1 · 中性</text>
  <text x="312" y="1508" class="body">KDJ：K 37.4 / D 34.6 · 观察</text>
  <text x="312" y="1546" class="body">均线：MA5 5966 / MA20 6109 · 空头排列</text>
  <text x="312" y="1584" class="body">技术综合：<tspan class="blue">-0.25</tspan></text>

  <rect x="810" y="1360" width="506" height="252" rx="8" class="soft"/>
  <text x="836" y="1392" class="h2">阶段收益与回测</text>
  <text x="836" y="1432" class="body">近 5 日：-12.8%</text>
  <text x="836" y="1470" class="body">近 20 日：-9.2%</text>
  <text x="836" y="1508" class="body">近 3 月：-6.1%</text>
  <text x="836" y="1546" class="body">策略回测：趋势跟踪、布林带回归、MACD 金叉</text>
  <text x="836" y="1584" class="meta">回测表格在真实页面中继续展开，不在首屏裁掉。</text>

  <rect x="286" y="1640" width="500" height="190" rx="8" class="soft"/>
  <text x="312" y="1672" class="h2">资金流与相关板块</text>
  <text x="312" y="1712" class="body">资金流因子：0.00 · 样本数量：80 条</text>
  <text x="312" y="1750" class="body">联动线索：储能、电池、硅料、逆变器、玻璃基板</text>
  <text x="312" y="1788" class="body">资金状态：等待连续回流确认。</text>

  <rect x="810" y="1640" width="506" height="190" rx="8" class="soft"/>
  <text x="836" y="1672" class="h2">数据质量</text>
  <text x="836" y="1712" class="body">质量分：80 / 100 · 一致性：80 / 100</text>
  <text x="836" y="1750" class="body">来源：同花顺实时行情、同花顺 K 线、新浪资金流</text>
  <text x="836" y="1788" class="body">说明：数据完整但市场下跌，需降低追入权重。</text>

  <rect x="286" y="1858" width="1030" height="190" rx="8" class="soft"/>
  <text x="312" y="1890" class="h2">新闻证据</text>
  <text x="312" y="1930" class="body blue">光伏行业趋势回暖，产业链价格出现阶段性修复信号</text>
  <text x="312" y="1954" class="meta">2026-06-26 11:14 · EastmoneyFocus · 点击查看来源</text>
  <text x="312" y="1992" class="body blue">政策与订单端仍待确认，市场资金偏谨慎</text>
  <text x="312" y="2016" class="meta">2026-06-26 10:02 · SinaFinance · 点击查看来源</text>

  <rect x="286" y="2070" width="1030" height="72" rx="8" fill="#FFF7ED" stroke="#FED7AA"/>
  <text x="312" y="2102" class="h3 orange">长页设计要求</text>
  <text x="312" y="2128" class="body">实现时截图至少覆盖：首屏、事件/预测区、证据层、新闻证据底部；不要只按 860px 首屏实现。</text>
</svg>
